ISO-10303-21;
HEADER;

/* File generated by HOOPS Exchange Version 24.6.0 */

FILE_DESCRIPTION(('HOOPS Exchange Step'),'2;1');

FILE_NAME('C:\\Users\\PAVN\\Downloads\\control horn\\final design.stp',
'2026-05-24T14:39:33+05:30',
('PAVN'),
('Unknown organisation'),
'HOOPS Exchange 2024.6',
'HOOPS Exchange',
'Unknown authorisation');

FILE_SCHEMA( ('AUTOMOTIVE_DESIGN { 1 0 10303 214 1 1 1 1 }') );

ENDSEC;

DATA;
#3=(NAMED_UNIT(*)PLANE_ANGLE_UNIT()SI_UNIT($,.RADIAN.));
#4=PLANE_ANGLE_MEASURE_WITH_UNIT(PLANE_ANGLE_MEASURE(0.0174532925),#3);
#5=(CONVERSION_BASED_UNIT('DEGREE',#4)NAMED_UNIT(#6)PLANE_ANGLE_UNIT());
#6=DIMENSIONAL_EXPONENTS(0.,0.,0.,0.,0.,0.,0.);
#7=(NAMED_UNIT(*)SI_UNIT($,.STERADIAN.)SOLID_ANGLE_UNIT());
#8=(LENGTH_UNIT()NAMED_UNIT(*)SI_UNIT(.MILLI.,.METRE.));
#9=UNCERTAINTY_MEASURE_WITH_UNIT(LENGTH_MEASURE(1.000000E-05),#8,'DISTANCE_ACCURACY_VALUE','Maximum Tolerance applied to model');
#10=(GEOMETRIC_REPRESENTATION_CONTEXT(3)GLOBAL_UNCERTAINTY_ASSIGNED_CONTEXT((#9))GLOBAL_UNIT_ASSIGNED_CONTEXT((#8,#5,#7))REPRESENTATION_CONTEXT('','final design'));
#12=CARTESIAN_POINT('',(0.,0.,0.));
#13=DIRECTION('',(0.,0.,1.));
#14=DIRECTION('',(1.,0.,0.));
#15=AXIS2_PLACEMENT_3D('',#12,#13,#14);
#27=CARTESIAN_POINT('',(10.124837573,-0.08,6.53013594));
#28=DIRECTION('',(0.,1.,0.));
#29=DIRECTION('',(-1.,0.,0.));
#30=AXIS2_PLACEMENT_3D('',#27,#28,#29);
#31=PLANE('',#30);
#32=CARTESIAN_POINT('',(23.248769595,-0.08,6.53013594));
#33=VERTEX_POINT('',#32);
#34=CARTESIAN_POINT('',(23.248769595,-0.08,3.53013594));
#35=VERTEX_POINT('',#34);
#36=CARTESIAN_POINT('',(23.248769595,-0.08,6.53013594));
#37=DIRECTION('',(0.,0.,-1.));
#38=VECTOR('',#37,3.);
#39=LINE('',#36,#38);
#40=EDGE_CURVE('7:353',#33,#35,#39,.T.);
#41=ORIENTED_EDGE('',*,*,#40,.F.);
#42=CARTESIAN_POINT('',(10.124837573,-0.08,6.53013594));
#43=VERTEX_POINT('',#42);
#44=CARTESIAN_POINT('',(10.124837573,-0.08,6.53013594));
#45=DIRECTION('',(1.,0.,-0.));
#46=VECTOR('',#45,13.123932023);
#47=LINE('',#44,#46);
#48=EDGE_CURVE('7:308',#43,#33,#47,.T.);
#49=ORIENTED_EDGE('',*,*,#48,.F.);
#50=CARTESIAN_POINT('',(10.124837573,-0.08,3.53013594));
#51=VERTEX_POINT('',#50);
#52=CARTESIAN_POINT('',(10.124837573,-0.08,6.53013594));
#53=DIRECTION('',(0.,0.,-1.));
#54=VECTOR('',#53,3.);
#55=LINE('',#52,#54);
#56=EDGE_CURVE('7:278',#43,#51,#55,.T.);
#57=ORIENTED_EDGE('',*,*,#56,.T.);
#58=CARTESIAN_POINT('',(10.124837573,-0.08,3.53013594));
#59=DIRECTION('',(1.,0.,-0.));
#60=VECTOR('',#59,13.123932023);
#61=LINE('',#58,#60);
#62=EDGE_CURVE('7:275',#51,#35,#61,.T.);
#63=ORIENTED_EDGE('',*,*,#62,.T.);
#64=EDGE_LOOP('',(#41,#49,#57,#63));
#65=FACE_BOUND('',#64,.T.);
#66=ADVANCED_FACE('7:221',(#65),#31,.F.);
#67=CARTESIAN_POINT('',(-23.875162427,-3.08,3.53013594));
#68=DIRECTION('',(0.,-0.,1.));
#69=DIRECTION('',(1.,0.,0.));
#70=AXIS2_PLACEMENT_3D('',#67,#68,#69);
#71=PLANE('',#70);
#72=CARTESIAN_POINT('',(26.119722484,6.919989984,3.53013594));
#73=VERTEX_POINT('',#72);
#74=CARTESIAN_POINT('',(26.119722484,8.920010016,3.53013594));
#75=VERTEX_POINT('',#74);
#76=CARTESIAN_POINT('',(26.119722484,7.92,3.53013594));
#77=DIRECTION('',(0.,-0.,1.));
#78=DIRECTION('',(0.,-1.,-0.));
#79=AXIS2_PLACEMENT_3D('',#76,#77,#78);
#80=CIRCLE('',#79,1.000010016);
#81=EDGE_CURVE('7:326',#73,#75,#80,.T.);
#82=ORIENTED_EDGE('',*,*,#81,.T.);
#83=CARTESIAN_POINT('',(26.119722484,7.92,3.53013594));
#84=DIRECTION('',(0.,-0.,1.));
#85=DIRECTION('',(0.,-1.,-0.));
#86=AXIS2_PLACEMENT_3D('',#83,#84,#85);
#87=CIRCLE('',#86,1.000010016);
#88=EDGE_CURVE('7:326',#75,#73,#87,.T.);
#89=ORIENTED_EDGE('',*,*,#88,.T.);
#90=EDGE_LOOP('',(#82,#89));
#91=FACE_BOUND('',#90,.T.);
#92=CARTESIAN_POINT('',(26.117164939,10.919989984,3.53013594));
#93=VERTEX_POINT('',#92);
#94=CARTESIAN_POINT('',(26.117164939,12.920010016,3.53013594));
#95=VERTEX_POINT('',#94);
#96=CARTESIAN_POINT('',(26.117164939,11.92,3.53013594));
#97=DIRECTION('',(0.,-0.,1.));
#98=DIRECTION('',(0.,-1.,-0.));
#99=AXIS2_PLACEMENT_3D('',#96,#97,#98);
#100=CIRCLE('',#99,1.000010016);
#101=EDGE_CURVE('7:329',#93,#95,#100,.T.);
#102=ORIENTED_EDGE('',*,*,#101,.T.);
#103=CARTESIAN_POINT('',(26.117164939,11.92,3.53013594));
#104=DIRECTION('',(0.,-0.,1.));
#105=DIRECTION('',(0.,-1.,-0.));
#106=AXIS2_PLACEMENT_3D('',#103,#104,#105);
#107=CIRCLE('',#106,1.000010016);
#108=EDGE_CURVE('7:329',#95,#93,#107,.T.);
#109=ORIENTED_EDGE('',*,*,#108,.T.);
#110=EDGE_LOOP('',(#102,#109));
#111=FACE_BOUND('',#110,.T.);
#112=CARTESIAN_POINT('',(26.114607395,14.92,3.53013594));
#113=VERTEX_POINT('',#112);
#114=CARTESIAN_POINT('',(26.114607395,16.92,3.53013594));
#115=VERTEX_POINT('',#114);
#116=CARTESIAN_POINT('',(26.114607395,15.92,3.53013594));
#117=DIRECTION('',(0.,-0.,1.));
#118=DIRECTION('',(0.,-1.,-0.));
#119=AXIS2_PLACEMENT_3D('',#116,#117,#118);
#120=CIRCLE('',#119,1.);
#121=EDGE_CURVE('7:332',#113,#115,#120,.T.);
#122=ORIENTED_EDGE('',*,*,#121,.T.);
#123=CARTESIAN_POINT('',(26.114607395,15.92,3.53013594));
#124=DIRECTION('',(0.,-0.,1.));
#125=DIRECTION('',(0.,-1.,-0.));
#126=AXIS2_PLACEMENT_3D('',#123,#124,#125);
#127=CIRCLE('',#126,1.);
#128=EDGE_CURVE('7:332',#115,#113,#127,.T.);
#129=ORIENTED_EDGE('',*,*,#128,.T.);
#130=EDGE_LOOP('',(#122,#129));
#131=FACE_BOUND('',#130,.T.);
#132=CARTESIAN_POINT('',(26.111410464,19.919989984,3.53013594));
#133=VERTEX_POINT('',#132);
#134=CARTESIAN_POINT('',(26.111410464,21.920010016,3.53013594));
#135=VERTEX_POINT('',#134);
#136=CARTESIAN_POINT('',(26.111410464,20.92,3.53013594));
#137=DIRECTION('',(0.,-0.,1.));
#138=DIRECTION('',(0.,-1.,-0.));
#139=AXIS2_PLACEMENT_3D('',#136,#137,#138);
#140=CIRCLE('',#139,1.000010016);
#141=EDGE_CURVE('7:335',#133,#135,#140,.T.);
#142=ORIENTED_EDGE('',*,*,#141,.T.);
#143=CARTESIAN_POINT('',(26.111410464,20.92,3.53013594));
#144=DIRECTION('',(0.,-0.,1.));
#145=DIRECTION('',(0.,-1.,-0.));
#146=AXIS2_PLACEMENT_3D('',#143,#144,#145);
#147=CIRCLE('',#146,1.000010016);
#148=EDGE_CURVE('7:335',#135,#133,#147,.T.);
#149=ORIENTED_EDGE('',*,*,#148,.T.);
#150=EDGE_LOOP('',(#142,#149));
#151=FACE_BOUND('',#150,.T.);
#152=CARTESIAN_POINT('',(23.248769595,2.92,3.53013594));
#153=VERTEX_POINT('',#152);
#154=CARTESIAN_POINT('',(23.248769595,-0.08,3.53013594));
#155=DIRECTION('',(0.,1.,0.));
#156=VECTOR('',#155,3.);
#157=LINE('',#154,#156);
#158=EDGE_CURVE('7:350',#35,#153,#157,.T.);
#159=ORIENTED_EDGE('',*,*,#158,.F.);
#160=ORIENTED_EDGE('',*,*,#62,.F.);
#161=CARTESIAN_POINT('',(22.529459874,21.185066802,3.53013594));
#162=VERTEX_POINT('',#161);
#163=CARTESIAN_POINT('',(22.529459874,21.185066802,3.53013594));
#164=DIRECTION('',(-0.503871026,-0.863778901,-0.));
#165=VECTOR('',#164,24.61864579);
#166=LINE('',#163,#165);
#167=EDGE_CURVE('7:281',#162,#51,#166,.T.);
#168=ORIENTED_EDGE('',*,*,#167,.F.);
#169=CARTESIAN_POINT('',(27.291079761,23.92,3.53013594));
#170=VERTEX_POINT('',#169);
#171=CARTESIAN_POINT('',(27.291079761,18.407455201,3.53013594));
#172=DIRECTION('',(0.,-0.,1.));
#173=DIRECTION('',(0.,-1.,-0.));
#174=AXIS2_PLACEMENT_3D('',#171,#172,#173);
#175=CIRCLE('',#174,5.512544799);
#176=EDGE_CURVE('7:287',#170,#162,#175,.T.);
#177=ORIENTED_EDGE('',*,*,#176,.F.);
#178=CARTESIAN_POINT('',(28.124837573,23.92,3.53013594));
#179=VERTEX_POINT('',#178);
#180=CARTESIAN_POINT('',(28.124837573,23.92,3.53013594));
#181=DIRECTION('',(-1.,0.,0.));
#182=VECTOR('',#181,0.833757811);
#183=LINE('',#180,#182);
#184=EDGE_CURVE('7:293',#179,#170,#183,.T.);
#185=ORIENTED_EDGE('',*,*,#184,.F.);
#186=CARTESIAN_POINT('',(28.124837573,5.156067977,3.53013594));
#187=VERTEX_POINT('',#186);
#188=CARTESIAN_POINT('',(28.124837573,5.156067977,3.53013594));
#189=DIRECTION('',(0.,1.,0.));
#190=VECTOR('',#189,18.763932023);
#191=LINE('',#188,#190);
#192=EDGE_CURVE('7:299',#187,#179,#191,.T.);
#193=ORIENTED_EDGE('',*,*,#192,.F.);
#194=CARTESIAN_POINT('',(25.484837573,5.156067977,3.53013594));
#195=VERTEX_POINT('',#194);
#196=CARTESIAN_POINT('',(25.484837573,5.156067977,3.53013594));
#197=DIRECTION('',(1.,-0.,-0.));
#198=VECTOR('',#197,2.64);
#199=LINE('',#196,#198);
#200=EDGE_CURVE('7:305',#195,#187,#199,.T.);
#201=ORIENTED_EDGE('',*,*,#200,.F.);
#202=CARTESIAN_POINT('',(25.484837573,2.92,3.53013594));
#203=DIRECTION('',(0.,-0.,1.));
#204=DIRECTION('',(0.,-1.,-0.));
#205=AXIS2_PLACEMENT_3D('',#202,#203,#204);
#206=CIRCLE('',#205,2.236067977);
#207=EDGE_CURVE('7:269',#195,#153,#206,.T.);
#208=ORIENTED_EDGE('',*,*,#207,.T.);
#209=EDGE_LOOP('',(#159,#160,#168,#177,#185,#193,#201,#208));
#210=FACE_BOUND('',#209,.T.);
#211=ADVANCED_FACE('7:224',(#91,#111,#131,#151,#210),#71,.F.);
#212=CARTESIAN_POINT('',(26.111410464,20.92,6.53013594));
#213=DIRECTION('',(0.,0.,-1.));
#214=DIRECTION('',(0.,1.,0.));
#215=AXIS2_PLACEMENT_3D('',#212,#213,#214);
#216=CYLINDRICAL_SURFACE('',#215,1.000010016);
#217=CARTESIAN_POINT('',(26.111410464,21.920010016,6.53013594));
#218=VERTEX_POINT('',#217);
#219=CARTESIAN_POINT('',(26.111410464,21.920010016,3.53013594));
#220=DIRECTION('',(-0.,-0.,1.));
#221=VECTOR('',#220,3.);
#222=LINE('',#219,#221);
#223=EDGE_CURVE('',#135,#218,#222,.T.);
#224=ORIENTED_EDGE('',*,*,#223,.F.);
#225=ORIENTED_EDGE('',*,*,#141,.F.);
#226=ORIENTED_EDGE('',*,*,#148,.F.);
#227=ORIENTED_EDGE('',*,*,#223,.T.);
#228=CARTESIAN_POINT('',(25.111400448,20.92,6.53013594));
#229=VERTEX_POINT('',#228);
#230=CARTESIAN_POINT('',(26.111410464,20.92,6.53013594));
#231=DIRECTION('',(0.,-0.,1.));
#232=DIRECTION('',(-1.,0.,0.));
#233=AXIS2_PLACEMENT_3D('',#230,#231,#232);
#234=CIRCLE('',#233,1.000010016);
#235=EDGE_CURVE('7:347',#218,#229,#234,.T.);
#236=ORIENTED_EDGE('',*,*,#235,.T.);
#237=CARTESIAN_POINT('',(26.111410464,20.92,6.53013594));
#238=DIRECTION('',(0.,-0.,1.));
#239=DIRECTION('',(-1.,0.,0.));
#240=AXIS2_PLACEMENT_3D('',#237,#238,#239);
#241=CIRCLE('',#240,1.000010016);
#242=EDGE_CURVE('7:347',#229,#218,#241,.T.);
#243=ORIENTED_EDGE('',*,*,#242,.T.);
#244=EDGE_LOOP('',(#224,#225,#226,#227,#236,#243));
#245=FACE_BOUND('',#244,.T.);
#246=ADVANCED_FACE('7:227',(#245),#216,.F.);
#247=CARTESIAN_POINT('',(26.114607395,15.92,6.53013594));
#248=DIRECTION('',(0.,0.,-1.));
#249=DIRECTION('',(0.,1.,0.));
#250=AXIS2_PLACEMENT_3D('',#247,#248,#249);
#251=CYLINDRICAL_SURFACE('',#250,1.);
#252=CARTESIAN_POINT('',(26.114607395,16.92,6.53013594));
#253=VERTEX_POINT('',#252);
#254=CARTESIAN_POINT('',(26.114607395,16.92,3.53013594));
#255=DIRECTION('',(-0.,-0.,1.));
#256=VECTOR('',#255,3.);
#257=LINE('',#254,#256);
#258=EDGE_CURVE('',#115,#253,#257,.T.);
#259=ORIENTED_EDGE('',*,*,#258,.F.);
#260=ORIENTED_EDGE('',*,*,#121,.F.);
#261=ORIENTED_EDGE('',*,*,#128,.F.);
#262=ORIENTED_EDGE('',*,*,#258,.T.);
#263=CARTESIAN_POINT('',(25.114607395,15.92,6.53013594));
#264=VERTEX_POINT('',#263);
#265=CARTESIAN_POINT('',(26.114607395,15.92,6.53013594));
#266=DIRECTION('',(0.,-0.,1.));
#267=DIRECTION('',(-1.,0.,0.));
#268=AXIS2_PLACEMENT_3D('',#265,#266,#267);
#269=CIRCLE('',#268,1.);
#270=EDGE_CURVE('7:344',#253,#264,#269,.T.);
#271=ORIENTED_EDGE('',*,*,#270,.T.);
#272=CARTESIAN_POINT('',(26.114607395,15.92,6.53013594));
#273=DIRECTION('',(0.,-0.,1.));
#274=DIRECTION('',(-1.,0.,0.));
#275=AXIS2_PLACEMENT_3D('',#272,#273,#274);
#276=CIRCLE('',#275,1.);
#277=EDGE_CURVE('7:344',#264,#253,#276,.T.);
#278=ORIENTED_EDGE('',*,*,#277,.T.);
#279=EDGE_LOOP('',(#259,#260,#261,#262,#271,#278));
#280=FACE_BOUND('',#279,.T.);
#281=ADVANCED_FACE('7:230',(#280),#251,.F.);
#282=CARTESIAN_POINT('',(26.117164939,11.92,6.53013594));
#283=DIRECTION('',(0.,0.,-1.));
#284=DIRECTION('',(0.,1.,0.));
#285=AXIS2_PLACEMENT_3D('',#282,#283,#284);
#286=CYLINDRICAL_SURFACE('',#285,1.000010016);
#287=CARTESIAN_POINT('',(26.117164939,12.920010016,6.53013594));
#288=VERTEX_POINT('',#287);
#289=CARTESIAN_POINT('',(26.117164939,12.920010016,3.53013594));
#290=DIRECTION('',(-0.,-0.,1.));
#291=VECTOR('',#290,3.);
#292=LINE('',#289,#291);
#293=EDGE_CURVE('',#95,#288,#292,.T.);
#294=ORIENTED_EDGE('',*,*,#293,.F.);
#295=ORIENTED_EDGE('',*,*,#101,.F.);
#296=ORIENTED_EDGE('',*,*,#108,.F.);
#297=ORIENTED_EDGE('',*,*,#293,.T.);
#298=CARTESIAN_POINT('',(25.117154923,11.92,6.53013594));
#299=VERTEX_POINT('',#298);
#300=CARTESIAN_POINT('',(26.117164939,11.92,6.53013594));
#301=DIRECTION('',(0.,-0.,1.));
#302=DIRECTION('',(-1.,0.,0.));
#303=AXIS2_PLACEMENT_3D('',#300,#301,#302);
#304=CIRCLE('',#303,1.000010016);
#305=EDGE_CURVE('7:341',#288,#299,#304,.T.);
#306=ORIENTED_EDGE('',*,*,#305,.T.);
#307=CARTESIAN_POINT('',(26.117164939,11.92,6.53013594));
#308=DIRECTION('',(0.,-0.,1.));
#309=DIRECTION('',(-1.,0.,0.));
#310=AXIS2_PLACEMENT_3D('',#307,#308,#309);
#311=CIRCLE('',#310,1.000010016);
#312=EDGE_CURVE('7:341',#299,#288,#311,.T.);
#313=ORIENTED_EDGE('',*,*,#312,.T.);
#314=EDGE_LOOP('',(#294,#295,#296,#297,#306,#313));
#315=FACE_BOUND('',#314,.T.);
#316=ADVANCED_FACE('7:233',(#315),#286,.F.);
#317=CARTESIAN_POINT('',(26.119722484,7.92,6.53013594));
#318=DIRECTION('',(0.,0.,-1.));
#319=DIRECTION('',(0.,1.,0.));
#320=AXIS2_PLACEMENT_3D('',#317,#318,#319);
#321=CYLINDRICAL_SURFACE('',#320,1.000010016);
#322=CARTESIAN_POINT('',(26.119722484,8.920010016,6.53013594));
#323=VERTEX_POINT('',#322);
#324=CARTESIAN_POINT('',(26.119722484,8.920010016,3.53013594));
#325=DIRECTION('',(-0.,-0.,1.));
#326=VECTOR('',#325,3.);
#327=LINE('',#324,#326);
#328=EDGE_CURVE('',#75,#323,#327,.T.);
#329=ORIENTED_EDGE('',*,*,#328,.F.);
#330=ORIENTED_EDGE('',*,*,#81,.F.);
#331=ORIENTED_EDGE('',*,*,#88,.F.);
#332=ORIENTED_EDGE('',*,*,#328,.T.);
#333=CARTESIAN_POINT('',(25.119712468,7.92,6.53013594));
#334=VERTEX_POINT('',#333);
#335=CARTESIAN_POINT('',(26.119722484,7.92,6.53013594));
#336=DIRECTION('',(0.,-0.,1.));
#337=DIRECTION('',(-1.,0.,0.));
#338=AXIS2_PLACEMENT_3D('',#335,#336,#337);
#339=CIRCLE('',#338,1.000010016);
#340=EDGE_CURVE('7:338',#323,#334,#339,.T.);
#341=ORIENTED_EDGE('',*,*,#340,.T.);
#342=CARTESIAN_POINT('',(26.119722484,7.92,6.53013594));
#343=DIRECTION('',(0.,-0.,1.));
#344=DIRECTION('',(-1.,0.,0.));
#345=AXIS2_PLACEMENT_3D('',#342,#343,#344);
#346=CIRCLE('',#345,1.000010016);
#347=EDGE_CURVE('7:338',#334,#323,#346,.T.);
#348=ORIENTED_EDGE('',*,*,#347,.T.);
#349=EDGE_LOOP('',(#329,#330,#331,#332,#341,#348));
#350=FACE_BOUND('',#349,.T.);
#351=ADVANCED_FACE('7:236',(#350),#321,.F.);
#352=CARTESIAN_POINT('',(-23.875162427,-3.08,6.53013594));
#353=DIRECTION('',(0.,-0.,1.));
#354=DIRECTION('',(1.,0.,0.));
#355=AXIS2_PLACEMENT_3D('',#352,#353,#354);
#356=PLANE('',#355);
#357=CARTESIAN_POINT('',(23.248769595,2.92,6.53013594));
#358=VERTEX_POINT('',#357);
#359=CARTESIAN_POINT('',(23.248769595,2.92,6.53013594));
#360=DIRECTION('',(-0.,-1.,-0.));
#361=VECTOR('',#360,3.);
#362=LINE('',#359,#361);
#363=EDGE_CURVE('7:263',#358,#33,#362,.T.);
#364=ORIENTED_EDGE('',*,*,#363,.F.);
#365=CARTESIAN_POINT('',(25.484837573,5.156067977,6.53013594));
#366=VERTEX_POINT('',#365);
#367=CARTESIAN_POINT('',(25.484837573,2.92,6.53013594));
#368=DIRECTION('',(-0.,0.,-1.));
#369=DIRECTION('',(0.,-1.,-0.));
#370=AXIS2_PLACEMENT_3D('',#367,#368,#369);
#371=CIRCLE('',#370,2.236067977);
#372=EDGE_CURVE('7:266',#358,#366,#371,.T.);
#373=ORIENTED_EDGE('',*,*,#372,.T.);
#374=CARTESIAN_POINT('',(28.124837573,5.156067977,6.53013594));
#375=VERTEX_POINT('',#374);
#376=CARTESIAN_POINT('',(25.484837573,5.156067977,6.53013594));
#377=DIRECTION('',(1.,-0.,-0.));
#378=VECTOR('',#377,2.64);
#379=LINE('',#376,#378);
#380=EDGE_CURVE('7:323',#366,#375,#379,.T.);
#381=ORIENTED_EDGE('',*,*,#380,.T.);
#382=CARTESIAN_POINT('',(28.124837573,23.92,6.53013594));
#383=VERTEX_POINT('',#382);
#384=CARTESIAN_POINT('',(28.124837573,5.156067977,6.53013594));
#385=DIRECTION('',(0.,1.,0.));
#386=VECTOR('',#385,18.763932023);
#387=LINE('',#384,#386);
#388=EDGE_CURVE('7:320',#375,#383,#387,.T.);
#389=ORIENTED_EDGE('',*,*,#388,.T.);
#390=CARTESIAN_POINT('',(27.291079761,23.92,6.53013594));
#391=VERTEX_POINT('',#390);
#392=CARTESIAN_POINT('',(28.124837573,23.92,6.53013594));
#393=DIRECTION('',(-1.,-0.,0.));
#394=VECTOR('',#393,0.833757811);
#395=LINE('',#392,#394);
#396=EDGE_CURVE('7:317',#383,#391,#395,.T.);
#397=ORIENTED_EDGE('',*,*,#396,.T.);
#398=CARTESIAN_POINT('',(22.529459874,21.185066802,6.53013594));
#399=VERTEX_POINT('',#398);
#400=CARTESIAN_POINT('',(27.291079761,18.407455201,6.53013594));
#401=DIRECTION('',(0.,-0.,1.));
#402=DIRECTION('',(0.,1.,0.));
#403=AXIS2_PLACEMENT_3D('',#400,#401,#402);
#404=CIRCLE('',#403,5.512544799);
#405=EDGE_CURVE('7:314',#391,#399,#404,.T.);
#406=ORIENTED_EDGE('',*,*,#405,.T.);
#407=CARTESIAN_POINT('',(22.529459874,21.185066802,6.53013594));
#408=DIRECTION('',(-0.503871026,-0.863778901,-0.));
#409=VECTOR('',#408,24.61864579);
#410=LINE('',#407,#409);
#411=EDGE_CURVE('7:311',#399,#43,#410,.T.);
#412=ORIENTED_EDGE('',*,*,#411,.T.);
#413=ORIENTED_EDGE('',*,*,#48,.T.);
#414=EDGE_LOOP('',(#364,#373,#381,#389,#397,#406,#412,#413));
#415=FACE_BOUND('',#414,.T.);
#416=ORIENTED_EDGE('',*,*,#235,.F.);
#417=ORIENTED_EDGE('',*,*,#242,.F.);
#418=EDGE_LOOP('',(#416,#417));
#419=FACE_BOUND('',#418,.T.);
#420=ORIENTED_EDGE('',*,*,#270,.F.);
#421=ORIENTED_EDGE('',*,*,#277,.F.);
#422=EDGE_LOOP('',(#420,#421));
#423=FACE_BOUND('',#422,.T.);
#424=ORIENTED_EDGE('',*,*,#305,.F.);
#425=ORIENTED_EDGE('',*,*,#312,.F.);
#426=EDGE_LOOP('',(#424,#425));
#427=FACE_BOUND('',#426,.T.);
#428=ORIENTED_EDGE('',*,*,#340,.F.);
#429=ORIENTED_EDGE('',*,*,#347,.F.);
#430=EDGE_LOOP('',(#428,#429));
#431=FACE_BOUND('',#430,.T.);
#432=ADVANCED_FACE('7:239',(#415,#419,#423,#427,#431),#356,.T.);
#433=CARTESIAN_POINT('',(28.124837573,5.156067977,5.03013594));
#434=DIRECTION('',(0.,-1.,-0.));
#435=DIRECTION('',(0.,0.,-1.));
#436=AXIS2_PLACEMENT_3D('',#433,#434,#435);
#437=PLANE('',#436);
#438=ORIENTED_EDGE('',*,*,#380,.F.);
#439=CARTESIAN_POINT('',(25.484837573,5.156067977,6.53013594));
#440=DIRECTION('',(0.,0.,-1.));
#441=VECTOR('',#440,3.);
#442=LINE('',#439,#441);
#443=EDGE_CURVE('7:272',#366,#195,#442,.T.);
#444=ORIENTED_EDGE('',*,*,#443,.T.);
#445=ORIENTED_EDGE('',*,*,#200,.T.);
#446=CARTESIAN_POINT('',(28.124837573,5.156067977,6.53013594));
#447=DIRECTION('',(-0.,0.,-1.));
#448=VECTOR('',#447,3.);
#449=LINE('',#446,#448);
#450=EDGE_CURVE('7:302',#375,#187,#449,.T.);
#451=ORIENTED_EDGE('',*,*,#450,.F.);
#452=EDGE_LOOP('',(#438,#444,#445,#451));
#453=FACE_BOUND('',#452,.T.);
#454=ADVANCED_FACE('7:242',(#453),#437,.T.);
#455=CARTESIAN_POINT('',(28.124837573,-0.08,6.53013594));
#456=DIRECTION('',(-1.,0.,0.));
#457=DIRECTION('',(0.,-1.,-0.));
#458=AXIS2_PLACEMENT_3D('',#455,#456,#457);
#459=PLANE('',#458);
#460=CARTESIAN_POINT('',(28.124837573,23.92,6.53013594));
#461=DIRECTION('',(0.,0.,-1.));
#462=VECTOR('',#461,3.);
#463=LINE('',#460,#462);
#464=EDGE_CURVE('7:296',#383,#179,#463,.T.);
#465=ORIENTED_EDGE('',*,*,#464,.F.);
#466=ORIENTED_EDGE('',*,*,#388,.F.);
#467=ORIENTED_EDGE('',*,*,#450,.T.);
#468=ORIENTED_EDGE('',*,*,#192,.T.);
#469=EDGE_LOOP('',(#465,#466,#467,#468));
#470=FACE_BOUND('',#469,.T.);
#471=ADVANCED_FACE('7:245',(#470),#459,.F.);
#472=CARTESIAN_POINT('',(24.124837573,23.92,6.53013594));
#473=DIRECTION('',(0.,-1.,-0.));
#474=DIRECTION('',(1.,0.,0.));
#475=AXIS2_PLACEMENT_3D('',#472,#473,#474);
#476=PLANE('',#475);
#477=CARTESIAN_POINT('',(27.291079761,23.92,6.53013594));
#478=DIRECTION('',(0.,0.,-1.));
#479=VECTOR('',#478,3.);
#480=LINE('',#477,#479);
#481=EDGE_CURVE('7:290',#391,#170,#480,.T.);
#482=ORIENTED_EDGE('',*,*,#481,.F.);
#483=ORIENTED_EDGE('',*,*,#396,.F.);
#484=ORIENTED_EDGE('',*,*,#464,.T.);
#485=ORIENTED_EDGE('',*,*,#184,.T.);
#486=EDGE_LOOP('',(#482,#483,#484,#485));
#487=FACE_BOUND('',#486,.T.);
#488=ADVANCED_FACE('7:248',(#487),#476,.F.);
#489=CARTESIAN_POINT('',(27.291079761,18.407455201,6.53013594));
#490=DIRECTION('',(0.,0.,-1.));
#491=DIRECTION('',(0.,1.,0.));
#492=AXIS2_PLACEMENT_3D('',#489,#490,#491);
#493=CYLINDRICAL_SURFACE('',#492,5.512544799);
#494=CARTESIAN_POINT('',(22.529459874,21.185066802,6.53013594));
#495=DIRECTION('',(0.,0.,-1.));
#496=VECTOR('',#495,3.);
#497=LINE('',#494,#496);
#498=EDGE_CURVE('7:284',#399,#162,#497,.T.);
#499=ORIENTED_EDGE('',*,*,#498,.F.);
#500=ORIENTED_EDGE('',*,*,#405,.F.);
#501=ORIENTED_EDGE('',*,*,#481,.T.);
#502=ORIENTED_EDGE('',*,*,#176,.T.);
#503=EDGE_LOOP('',(#499,#500,#501,#502));
#504=FACE_BOUND('',#503,.T.);
#505=ADVANCED_FACE('7:251',(#504),#493,.T.);
#506=CARTESIAN_POINT('',(24.124837573,23.92,6.53013594));
#507=DIRECTION('',(0.863778901,-0.503871026,-0.));
#508=DIRECTION('',(0.503871026,0.863778901,0.));
#509=AXIS2_PLACEMENT_3D('',#506,#507,#508);
#510=PLANE('',#509);
#511=ORIENTED_EDGE('',*,*,#56,.F.);
#512=ORIENTED_EDGE('',*,*,#411,.F.);
#513=ORIENTED_EDGE('',*,*,#498,.T.);
#514=ORIENTED_EDGE('',*,*,#167,.T.);
#515=EDGE_LOOP('',(#511,#512,#513,#514));
#516=FACE_BOUND('',#515,.T.);
#517=ADVANCED_FACE('7:254',(#516),#510,.F.);
#518=CARTESIAN_POINT('',(25.484837573,2.92,5.03013594));
#519=DIRECTION('',(0.,0.,-1.));
#520=DIRECTION('',(0.,1.,0.));
#521=AXIS2_PLACEMENT_3D('',#518,#519,#520);
#522=CYLINDRICAL_SURFACE('',#521,2.236067977);
#523=ORIENTED_EDGE('',*,*,#372,.F.);
#524=CARTESIAN_POINT('',(23.248769595,2.92,6.53013594));
#525=DIRECTION('',(0.,0.,-1.));
#526=VECTOR('',#525,3.);
#527=LINE('',#524,#526);
#528=EDGE_CURVE('7:356',#358,#153,#527,.T.);
#529=ORIENTED_EDGE('',*,*,#528,.T.);
#530=ORIENTED_EDGE('',*,*,#207,.F.);
#531=ORIENTED_EDGE('',*,*,#443,.F.);
#532=EDGE_LOOP('',(#523,#529,#530,#531));
#533=FACE_BOUND('',#532,.T.);
#534=ADVANCED_FACE('7:257',(#533),#522,.F.);
#535=CARTESIAN_POINT('',(23.248769595,2.92,6.53013594));
#536=DIRECTION('',(1.,-0.,-0.));
#537=DIRECTION('',(0.,1.,0.));
#538=AXIS2_PLACEMENT_3D('',#535,#536,#537);
#539=PLANE('',#538);
#540=ORIENTED_EDGE('',*,*,#158,.T.);
#541=ORIENTED_EDGE('',*,*,#528,.F.);
#542=ORIENTED_EDGE('',*,*,#363,.T.);
#543=ORIENTED_EDGE('',*,*,#40,.T.);
#544=EDGE_LOOP('',(#540,#541,#542,#543));
#545=FACE_BOUND('',#544,.T.);
#546=ADVANCED_FACE('7:260',(#545),#539,.T.);
#547=CLOSED_SHELL('',(#66,#211,#246,#281,#316,#351,#432,#454,#471,#488,#505,#517,#534,#546));
#548=MANIFOLD_SOLID_BREP('horn',#547);
#549=COLOUR_RGB('',0.56078434,0.686274529,0.56078434);
#550=FILL_AREA_STYLE_COLOUR('',#549);
#551=FILL_AREA_STYLE('',(#550));
#552=SURFACE_STYLE_FILL_AREA(#551);
#553=SURFACE_SIDE_STYLE('',(#552));
#554=SURFACE_STYLE_USAGE(.BOTH.,#553);
#555=PRESENTATION_STYLE_ASSIGNMENT((#554));
#26=STYLED_ITEM('',(#555),#548);
#557=CARTESIAN_POINT('',(12.72,0.,1.));
#558=DIRECTION('',(0.,1.,0.));
#559=DIRECTION('',(0.,-0.,1.));
#560=AXIS2_PLACEMENT_3D('',#557,#558,#559);
#561=CYLINDRICAL_SURFACE('',#560,1.25);
#562=CARTESIAN_POINT('',(12.72,3.,2.25));
#563=VERTEX_POINT('',#562);
#564=CARTESIAN_POINT('',(12.72,0.,2.25));
#565=VERTEX_POINT('',#564);
#566=CARTESIAN_POINT('',(12.72,3.,2.25));
#567=DIRECTION('',(-0.,-1.,-0.));
#568=VECTOR('',#567,3.);
#569=LINE('',#566,#568);
#570=EDGE_CURVE('',#563,#565,#569,.T.);
#571=ORIENTED_EDGE('',*,*,#570,.F.);
#572=CARTESIAN_POINT('',(12.72,3.,1.));
#573=DIRECTION('',(0.,1.,0.));
#574=DIRECTION('',(0.,-0.,1.));
#575=AXIS2_PLACEMENT_3D('',#572,#573,#574);
#576=CIRCLE('',#575,1.25);
#577=EDGE_CURVE('7:135',#563,#563,#576,.T.);
#578=ORIENTED_EDGE('',*,*,#577,.T.);
#579=ORIENTED_EDGE('',*,*,#570,.T.);
#580=CARTESIAN_POINT('',(11.47,0.,1.));
#581=VERTEX_POINT('',#580);
#582=CARTESIAN_POINT('',(12.72,0.,1.));
#583=DIRECTION('',(0.,1.,0.));
#584=DIRECTION('',(-1.,0.,0.));
#585=AXIS2_PLACEMENT_3D('',#582,#583,#584);
#586=CIRCLE('',#585,1.25);
#587=EDGE_CURVE('7:147',#581,#565,#586,.T.);
#588=ORIENTED_EDGE('',*,*,#587,.F.);
#589=CARTESIAN_POINT('',(12.72,0.,1.));
#590=DIRECTION('',(0.,1.,0.));
#591=DIRECTION('',(-1.,0.,0.));
#592=AXIS2_PLACEMENT_3D('',#589,#590,#591);
#593=CIRCLE('',#592,1.25);
#594=EDGE_CURVE('7:147',#565,#581,#593,.T.);
#595=ORIENTED_EDGE('',*,*,#594,.F.);
#596=EDGE_LOOP('',(#571,#578,#579,#588,#595));
#597=FACE_BOUND('',#596,.T.);
#598=ADVANCED_FACE('7:12',(#597),#561,.F.);
#599=CARTESIAN_POINT('',(21.22,0.,1.));
#600=DIRECTION('',(0.,1.,0.));
#601=DIRECTION('',(0.,-0.,1.));
#602=AXIS2_PLACEMENT_3D('',#599,#600,#601);
#603=CYLINDRICAL_SURFACE('',#602,1.25);
#604=CARTESIAN_POINT('',(21.22,3.,2.25));
#605=VERTEX_POINT('',#604);
#606=CARTESIAN_POINT('',(21.22,0.,2.25));
#607=VERTEX_POINT('',#606);
#608=CARTESIAN_POINT('',(21.22,3.,2.25));
#609=DIRECTION('',(-0.,-1.,-0.));
#610=VECTOR('',#609,3.);
#611=LINE('',#608,#610);
#612=EDGE_CURVE('',#605,#607,#611,.T.);
#613=ORIENTED_EDGE('',*,*,#612,.F.);
#614=CARTESIAN_POINT('',(21.22,3.,1.));
#615=DIRECTION('',(0.,1.,0.));
#616=DIRECTION('',(0.,-0.,1.));
#617=AXIS2_PLACEMENT_3D('',#614,#615,#616);
#618=CIRCLE('',#617,1.25);
#619=EDGE_CURVE('7:132',#605,#605,#618,.T.);
#620=ORIENTED_EDGE('',*,*,#619,.T.);
#621=ORIENTED_EDGE('',*,*,#612,.T.);
#622=CARTESIAN_POINT('',(19.97,0.,1.));
#623=VERTEX_POINT('',#622);
#624=CARTESIAN_POINT('',(21.22,0.,1.));
#625=DIRECTION('',(0.,1.,0.));
#626=DIRECTION('',(-1.,0.,0.));
#627=AXIS2_PLACEMENT_3D('',#624,#625,#626);
#628=CIRCLE('',#627,1.25);
#629=EDGE_CURVE('7:144',#623,#607,#628,.T.);
#630=ORIENTED_EDGE('',*,*,#629,.F.);
#631=CARTESIAN_POINT('',(21.22,0.,1.));
#632=DIRECTION('',(0.,1.,0.));
#633=DIRECTION('',(-1.,0.,0.));
#634=AXIS2_PLACEMENT_3D('',#631,#632,#633);
#635=CIRCLE('',#634,1.25);
#636=EDGE_CURVE('7:144',#607,#623,#635,.T.);
#637=ORIENTED_EDGE('',*,*,#636,.F.);
#638=EDGE_LOOP('',(#613,#620,#621,#630,#637));
#639=FACE_BOUND('',#638,.T.);
#640=ADVANCED_FACE('7:15',(#639),#603,.F.);
#641=CARTESIAN_POINT('',(12.72,0.,9.5));
#642=DIRECTION('',(0.,1.,0.));
#643=DIRECTION('',(0.,-0.,1.));
#644=AXIS2_PLACEMENT_3D('',#641,#642,#643);
#645=CYLINDRICAL_SURFACE('',#644,1.25);
#646=CARTESIAN_POINT('',(12.72,3.,10.75));
#647=VERTEX_POINT('',#646);
#648=CARTESIAN_POINT('',(12.72,0.,10.75));
#649=VERTEX_POINT('',#648);
#650=CARTESIAN_POINT('',(12.72,3.,10.75));
#651=DIRECTION('',(-0.,-1.,-0.));
#652=VECTOR('',#651,3.);
#653=LINE('',#650,#652);
#654=EDGE_CURVE('',#647,#649,#653,.T.);
#655=ORIENTED_EDGE('',*,*,#654,.F.);
#656=CARTESIAN_POINT('',(12.72,3.,9.5));
#657=DIRECTION('',(0.,1.,0.));
#658=DIRECTION('',(0.,-0.,1.));
#659=AXIS2_PLACEMENT_3D('',#656,#657,#658);
#660=CIRCLE('',#659,1.25);
#661=EDGE_CURVE('7:129',#647,#647,#660,.T.);
#662=ORIENTED_EDGE('',*,*,#661,.T.);
#663=ORIENTED_EDGE('',*,*,#654,.T.);
#664=CARTESIAN_POINT('',(11.47,0.,9.5));
#665=VERTEX_POINT('',#664);
#666=CARTESIAN_POINT('',(12.72,0.,9.5));
#667=DIRECTION('',(0.,1.,0.));
#668=DIRECTION('',(-1.,0.,0.));
#669=AXIS2_PLACEMENT_3D('',#666,#667,#668);
#670=CIRCLE('',#669,1.25);
#671=EDGE_CURVE('7:141',#665,#649,#670,.T.);
#672=ORIENTED_EDGE('',*,*,#671,.F.);
#673=CARTESIAN_POINT('',(12.72,0.,9.5));
#674=DIRECTION('',(0.,1.,0.));
#675=DIRECTION('',(-1.,0.,0.));
#676=AXIS2_PLACEMENT_3D('',#673,#674,#675);
#677=CIRCLE('',#676,1.25);
#678=EDGE_CURVE('7:141',#649,#665,#677,.T.);
#679=ORIENTED_EDGE('',*,*,#678,.F.);
#680=EDGE_LOOP('',(#655,#662,#663,#672,#679));
#681=FACE_BOUND('',#680,.T.);
#682=ADVANCED_FACE('7:18',(#681),#645,.F.);
#683=CARTESIAN_POINT('',(21.22,0.,9.5));
#684=DIRECTION('',(0.,1.,0.));
#685=DIRECTION('',(0.,-0.,1.));
#686=AXIS2_PLACEMENT_3D('',#683,#684,#685);
#687=CYLINDRICAL_SURFACE('',#686,1.25);
#688=CARTESIAN_POINT('',(21.22,3.,10.75));
#689=VERTEX_POINT('',#688);
#690=CARTESIAN_POINT('',(21.22,0.,10.75));
#691=VERTEX_POINT('',#690);
#692=CARTESIAN_POINT('',(21.22,3.,10.75));
#693=DIRECTION('',(-0.,-1.,-0.));
#694=VECTOR('',#693,3.);
#695=LINE('',#692,#694);
#696=EDGE_CURVE('',#689,#691,#695,.T.);
#697=ORIENTED_EDGE('',*,*,#696,.F.);
#698=CARTESIAN_POINT('',(21.22,3.,9.5));
#699=DIRECTION('',(0.,1.,0.));
#700=DIRECTION('',(0.,-0.,1.));
#701=AXIS2_PLACEMENT_3D('',#698,#699,#700);
#702=CIRCLE('',#701,1.25);
#703=EDGE_CURVE('7:126',#689,#689,#702,.T.);
#704=ORIENTED_EDGE('',*,*,#703,.T.);
#705=ORIENTED_EDGE('',*,*,#696,.T.);
#706=CARTESIAN_POINT('',(19.97,0.,9.5));
#707=VERTEX_POINT('',#706);
#708=CARTESIAN_POINT('',(21.22,0.,9.5));
#709=DIRECTION('',(0.,1.,0.));
#710=DIRECTION('',(-1.,0.,0.));
#711=AXIS2_PLACEMENT_3D('',#708,#709,#710);
#712=CIRCLE('',#711,1.25);
#713=EDGE_CURVE('7:138',#707,#691,#712,.T.);
#714=ORIENTED_EDGE('',*,*,#713,.F.);
#715=CARTESIAN_POINT('',(21.22,0.,9.5));
#716=DIRECTION('',(0.,1.,0.));
#717=DIRECTION('',(-1.,0.,0.));
#718=AXIS2_PLACEMENT_3D('',#715,#716,#717);
#719=CIRCLE('',#718,1.25);
#720=EDGE_CURVE('7:138',#691,#707,#719,.T.);
#721=ORIENTED_EDGE('',*,*,#720,.F.);
#722=EDGE_LOOP('',(#697,#704,#705,#714,#721));
#723=FACE_BOUND('',#722,.T.);
#724=ADVANCED_FACE('7:21',(#723),#687,.F.);
#725=CARTESIAN_POINT('',(33.72,0.,0.));
#726=DIRECTION('',(0.,1.,0.));
#727=DIRECTION('',(0.,0.,1.));
#728=AXIS2_PLACEMENT_3D('',#725,#726,#727);
#729=PLANE('',#728);
#730=ORIENTED_EDGE('',*,*,#587,.T.);
#731=ORIENTED_EDGE('',*,*,#594,.T.);
#732=EDGE_LOOP('',(#730,#731));
#733=FACE_BOUND('',#732,.T.);
#734=ORIENTED_EDGE('',*,*,#629,.T.);
#735=ORIENTED_EDGE('',*,*,#636,.T.);
#736=EDGE_LOOP('',(#734,#735));
#737=FACE_BOUND('',#736,.T.);
#738=ORIENTED_EDGE('',*,*,#671,.T.);
#739=ORIENTED_EDGE('',*,*,#678,.T.);
#740=EDGE_LOOP('',(#738,#739));
#741=FACE_BOUND('',#740,.T.);
#742=ORIENTED_EDGE('',*,*,#713,.T.);
#743=ORIENTED_EDGE('',*,*,#720,.T.);
#744=EDGE_LOOP('',(#742,#743));
#745=FACE_BOUND('',#744,.T.);
#746=CARTESIAN_POINT('',(9.72,0.,9.));
#747=VERTEX_POINT('',#746);
#748=CARTESIAN_POINT('',(12.72,0.,12.));
#749=VERTEX_POINT('',#748);
#750=CARTESIAN_POINT('',(12.72,0.,9.));
#751=DIRECTION('',(0.,1.,0.));
#752=DIRECTION('',(-1.,0.,0.));
#753=AXIS2_PLACEMENT_3D('',#750,#751,#752);
#754=CIRCLE('',#753,3.);
#755=EDGE_CURVE('7:120',#747,#749,#754,.T.);
#756=ORIENTED_EDGE('',*,*,#755,.F.);
#757=CARTESIAN_POINT('',(9.72,0.,1.411099576));
#758=VERTEX_POINT('',#757);
#759=CARTESIAN_POINT('',(9.72,0.,1.411099576));
#760=DIRECTION('',(0.,0.,1.));
#761=VECTOR('',#760,7.588900424);
#762=LINE('',#759,#761);
#763=EDGE_CURVE('7:123',#758,#747,#762,.T.);
#764=ORIENTED_EDGE('',*,*,#763,.F.);
#765=CARTESIAN_POINT('',(13.131099576,0.,-2.));
#766=VERTEX_POINT('',#765);
#767=CARTESIAN_POINT('',(13.131099576,0.,1.411099576));
#768=DIRECTION('',(-0.,1.,-0.));
#769=DIRECTION('',(-1.,0.,0.));
#770=AXIS2_PLACEMENT_3D('',#767,#768,#769);
#771=CIRCLE('',#770,3.411099576);
#772=EDGE_CURVE('7:102',#766,#758,#771,.T.);
#773=ORIENTED_EDGE('',*,*,#772,.F.);
#774=CARTESIAN_POINT('',(20.719068049,0.,-2.));
#775=VERTEX_POINT('',#774);
#776=CARTESIAN_POINT('',(20.719068049,0.,-2.));
#777=DIRECTION('',(-1.,0.,0.));
#778=VECTOR('',#777,7.587968473);
#779=LINE('',#776,#778);
#780=EDGE_CURVE('7:105',#775,#766,#779,.T.);
#781=ORIENTED_EDGE('',*,*,#780,.F.);
#782=CARTESIAN_POINT('',(23.72,0.,1.000931951));
#783=VERTEX_POINT('',#782);
#784=CARTESIAN_POINT('',(20.719068049,0.,1.000931951));
#785=DIRECTION('',(-0.,1.,-0.));
#786=DIRECTION('',(0.,0.,-1.));
#787=AXIS2_PLACEMENT_3D('',#784,#785,#786);
#788=CIRCLE('',#787,3.000931951);
#789=EDGE_CURVE('7:108',#783,#775,#788,.T.);
#790=ORIENTED_EDGE('',*,*,#789,.F.);
#791=CARTESIAN_POINT('',(23.72,0.,8.999032631));
#792=VERTEX_POINT('',#791);
#793=CARTESIAN_POINT('',(23.72,0.,8.999032631));
#794=DIRECTION('',(0.,0.,-1.));
#795=VECTOR('',#794,7.99810068);
#796=LINE('',#793,#795);
#797=EDGE_CURVE('7:111',#792,#783,#796,.T.);
#798=ORIENTED_EDGE('',*,*,#797,.F.);
#799=CARTESIAN_POINT('',(20.719032631,0.,12.));
#800=VERTEX_POINT('',#799);
#801=CARTESIAN_POINT('',(20.719032631,0.,8.999032631));
#802=DIRECTION('',(-0.,1.,-0.));
#803=DIRECTION('',(1.,0.,0.));
#804=AXIS2_PLACEMENT_3D('',#801,#802,#803);
#805=CIRCLE('',#804,3.000967369);
#806=EDGE_CURVE('7:114',#800,#792,#805,.T.);
#807=ORIENTED_EDGE('',*,*,#806,.F.);
#808=CARTESIAN_POINT('',(12.72,0.,12.));
#809=DIRECTION('',(1.,0.,-0.));
#810=VECTOR('',#809,7.999032631);
#811=LINE('',#808,#810);
#812=EDGE_CURVE('7:117',#749,#800,#811,.T.);
#813=ORIENTED_EDGE('',*,*,#812,.F.);
#814=EDGE_LOOP('',(#756,#764,#773,#781,#790,#798,#807,#813));
#815=FACE_BOUND('',#814,.T.);
#816=ADVANCED_FACE('7:24',(#733,#737,#741,#745,#815),#729,.F.);
#817=CARTESIAN_POINT('',(33.72,3.,0.));
#818=DIRECTION('',(0.,1.,0.));
#819=DIRECTION('',(0.,0.,1.));
#820=AXIS2_PLACEMENT_3D('',#817,#818,#819);
#821=PLANE('',#820);
#822=ORIENTED_EDGE('',*,*,#577,.F.);
#823=EDGE_LOOP('',(#822));
#824=FACE_BOUND('',#823,.T.);
#825=ORIENTED_EDGE('',*,*,#619,.F.);
#826=EDGE_LOOP('',(#825));
#827=FACE_BOUND('',#826,.T.);
#828=ORIENTED_EDGE('',*,*,#661,.F.);
#829=EDGE_LOOP('',(#828));
#830=FACE_BOUND('',#829,.T.);
#831=ORIENTED_EDGE('',*,*,#703,.F.);
#832=EDGE_LOOP('',(#831));
#833=FACE_BOUND('',#832,.T.);
#834=CARTESIAN_POINT('',(9.72,3.,9.));
#835=VERTEX_POINT('',#834);
#836=CARTESIAN_POINT('',(12.72,3.,12.));
#837=VERTEX_POINT('',#836);
#838=CARTESIAN_POINT('',(12.72,3.,9.));
#839=DIRECTION('',(0.,1.,0.));
#840=DIRECTION('',(0.,-0.,1.));
#841=AXIS2_PLACEMENT_3D('',#838,#839,#840);
#842=CIRCLE('',#841,3.);
#843=EDGE_CURVE('7:90',#835,#837,#842,.T.);
#844=ORIENTED_EDGE('',*,*,#843,.T.);
#845=CARTESIAN_POINT('',(20.719032631,3.,12.));
#846=VERTEX_POINT('',#845);
#847=CARTESIAN_POINT('',(12.72,3.,12.));
#848=DIRECTION('',(1.,0.,-0.));
#849=VECTOR('',#848,7.999032631);
#850=LINE('',#847,#849);
#851=EDGE_CURVE('7:84',#837,#846,#850,.T.);
#852=ORIENTED_EDGE('',*,*,#851,.T.);
#853=CARTESIAN_POINT('',(23.72,3.,8.999032631));
#854=VERTEX_POINT('',#853);
#855=CARTESIAN_POINT('',(20.719032631,3.,8.999032631));
#856=DIRECTION('',(0.,1.,0.));
#857=DIRECTION('',(0.,-0.,1.));
#858=AXIS2_PLACEMENT_3D('',#855,#856,#857);
#859=CIRCLE('',#858,3.000967369);
#860=EDGE_CURVE('7:78',#846,#854,#859,.T.);
#861=ORIENTED_EDGE('',*,*,#860,.T.);
#862=CARTESIAN_POINT('',(23.72,3.,1.000931951));
#863=VERTEX_POINT('',#862);
#864=CARTESIAN_POINT('',(23.72,3.,8.999032631));
#865=DIRECTION('',(0.,0.,-1.));
#866=VECTOR('',#865,7.99810068);
#867=LINE('',#864,#866);
#868=EDGE_CURVE('7:72',#854,#863,#867,.T.);
#869=ORIENTED_EDGE('',*,*,#868,.T.);
#870=CARTESIAN_POINT('',(20.719068049,3.,-2.));
#871=VERTEX_POINT('',#870);
#872=CARTESIAN_POINT('',(20.719068049,3.,1.000931951));
#873=DIRECTION('',(0.,1.,0.));
#874=DIRECTION('',(0.,-0.,1.));
#875=AXIS2_PLACEMENT_3D('',#872,#873,#874);
#876=CIRCLE('',#875,3.000931951);
#877=EDGE_CURVE('7:66',#863,#871,#876,.T.);
#878=ORIENTED_EDGE('',*,*,#877,.T.);
#879=CARTESIAN_POINT('',(13.131099576,3.,-2.));
#880=VERTEX_POINT('',#879);
#881=CARTESIAN_POINT('',(20.719068049,3.,-2.));
#882=DIRECTION('',(-1.,0.,0.));
#883=VECTOR('',#882,7.587968473);
#884=LINE('',#881,#883);
#885=EDGE_CURVE('7:60',#871,#880,#884,.T.);
#886=ORIENTED_EDGE('',*,*,#885,.T.);
#887=CARTESIAN_POINT('',(9.72,3.,1.411099576));
#888=VERTEX_POINT('',#887);
#889=CARTESIAN_POINT('',(13.131099576,3.,1.411099576));
#890=DIRECTION('',(0.,1.,0.));
#891=DIRECTION('',(0.,-0.,1.));
#892=AXIS2_PLACEMENT_3D('',#889,#890,#891);
#893=CIRCLE('',#892,3.411099576);
#894=EDGE_CURVE('7:54',#880,#888,#893,.T.);
#895=ORIENTED_EDGE('',*,*,#894,.T.);
#896=CARTESIAN_POINT('',(9.72,3.,1.411099576));
#897=DIRECTION('',(0.,0.,1.));
#898=VECTOR('',#897,7.588900424);
#899=LINE('',#896,#898);
#900=EDGE_CURVE('7:96',#888,#835,#899,.T.);
#901=ORIENTED_EDGE('',*,*,#900,.T.);
#902=EDGE_LOOP('',(#844,#852,#861,#869,#878,#886,#895,#901));
#903=FACE_BOUND('',#902,.T.);
#904=ADVANCED_FACE('7:27',(#824,#827,#830,#833,#903),#821,.T.);
#905=CARTESIAN_POINT('',(9.72,0.,-2.));
#906=DIRECTION('',(-1.,0.,0.));
#907=DIRECTION('',(0.,0.,1.));
#908=AXIS2_PLACEMENT_3D('',#905,#906,#907);
#909=PLANE('',#908);
#910=CARTESIAN_POINT('',(9.72,0.,9.));
#911=DIRECTION('',(0.,1.,0.));
#912=VECTOR('',#911,3.);
#913=LINE('',#910,#912);
#914=EDGE_CURVE('7:93',#747,#835,#913,.T.);
#915=ORIENTED_EDGE('',*,*,#914,.T.);
#916=ORIENTED_EDGE('',*,*,#900,.F.);
#917=CARTESIAN_POINT('',(9.72,0.,1.411099576));
#918=DIRECTION('',(0.,1.,0.));
#919=VECTOR('',#918,3.);
#920=LINE('',#917,#919);
#921=EDGE_CURVE('7:99',#758,#888,#920,.T.);
#922=ORIENTED_EDGE('',*,*,#921,.F.);
#923=ORIENTED_EDGE('',*,*,#763,.T.);
#924=EDGE_LOOP('',(#915,#916,#922,#923));
#925=FACE_BOUND('',#924,.T.);
#926=ADVANCED_FACE('7:30',(#925),#909,.T.);
#927=CARTESIAN_POINT('',(12.72,0.,9.));
#928=DIRECTION('',(0.,1.,0.));
#929=DIRECTION('',(0.,-0.,1.));
#930=AXIS2_PLACEMENT_3D('',#927,#928,#929);
#931=CYLINDRICAL_SURFACE('',#930,3.);
#932=CARTESIAN_POINT('',(12.72,0.,12.));
#933=DIRECTION('',(0.,1.,0.));
#934=VECTOR('',#933,3.);
#935=LINE('',#932,#934);
#936=EDGE_CURVE('7:87',#749,#837,#935,.T.);
#937=ORIENTED_EDGE('',*,*,#936,.T.);
#938=ORIENTED_EDGE('',*,*,#843,.F.);
#939=ORIENTED_EDGE('',*,*,#914,.F.);
#940=ORIENTED_EDGE('',*,*,#755,.T.);
#941=EDGE_LOOP('',(#937,#938,#939,#940));
#942=FACE_BOUND('',#941,.T.);
#943=ADVANCED_FACE('7:33',(#942),#931,.T.);
#944=CARTESIAN_POINT('',(9.72,0.,12.));
#945=DIRECTION('',(0.,0.,1.));
#946=DIRECTION('',(1.,0.,0.));
#947=AXIS2_PLACEMENT_3D('',#944,#945,#946);
#948=PLANE('',#947);
#949=CARTESIAN_POINT('',(20.719032631,0.,12.));
#950=DIRECTION('',(0.,1.,0.));
#951=VECTOR('',#950,3.);
#952=LINE('',#949,#951);
#953=EDGE_CURVE('7:81',#800,#846,#952,.T.);
#954=ORIENTED_EDGE('',*,*,#953,.T.);
#955=ORIENTED_EDGE('',*,*,#851,.F.);
#956=ORIENTED_EDGE('',*,*,#936,.F.);
#957=ORIENTED_EDGE('',*,*,#812,.T.);
#958=EDGE_LOOP('',(#954,#955,#956,#957));
#959=FACE_BOUND('',#958,.T.);
#960=ADVANCED_FACE('7:36',(#959),#948,.T.);
#961=CARTESIAN_POINT('',(20.719032631,0.,8.999032631));
#962=DIRECTION('',(0.,1.,0.));
#963=DIRECTION('',(0.,-0.,1.));
#964=AXIS2_PLACEMENT_3D('',#961,#962,#963);
#965=CYLINDRICAL_SURFACE('',#964,3.000967369);
#966=CARTESIAN_POINT('',(23.72,0.,8.999032631));
#967=DIRECTION('',(0.,1.,0.));
#968=VECTOR('',#967,3.);
#969=LINE('',#966,#968);
#970=EDGE_CURVE('7:75',#792,#854,#969,.T.);
#971=ORIENTED_EDGE('',*,*,#970,.T.);
#972=ORIENTED_EDGE('',*,*,#860,.F.);
#973=ORIENTED_EDGE('',*,*,#953,.F.);
#974=ORIENTED_EDGE('',*,*,#806,.T.);
#975=EDGE_LOOP('',(#971,#972,#973,#974));
#976=FACE_BOUND('',#975,.T.);
#977=ADVANCED_FACE('7:39',(#976),#965,.T.);
#978=CARTESIAN_POINT('',(23.72,0.,5.));
#979=DIRECTION('',(1.,0.,0.));
#980=DIRECTION('',(0.,0.,-1.));
#981=AXIS2_PLACEMENT_3D('',#978,#979,#980);
#982=PLANE('',#981);
#983=CARTESIAN_POINT('',(23.72,0.,1.000931951));
#984=DIRECTION('',(0.,1.,0.));
#985=VECTOR('',#984,3.);
#986=LINE('',#983,#985);
#987=EDGE_CURVE('7:69',#783,#863,#986,.T.);
#988=ORIENTED_EDGE('',*,*,#987,.T.);
#989=ORIENTED_EDGE('',*,*,#868,.F.);
#990=ORIENTED_EDGE('',*,*,#970,.F.);
#991=ORIENTED_EDGE('',*,*,#797,.T.);
#992=EDGE_LOOP('',(#988,#989,#990,#991));
#993=FACE_BOUND('',#992,.T.);
#994=ADVANCED_FACE('7:42',(#993),#982,.T.);
#995=CARTESIAN_POINT('',(20.719068049,0.,1.000931951));
#996=DIRECTION('',(0.,1.,0.));
#997=DIRECTION('',(0.,-0.,1.));
#998=AXIS2_PLACEMENT_3D('',#995,#996,#997);
#999=CYLINDRICAL_SURFACE('',#998,3.000931951);
#1000=CARTESIAN_POINT('',(20.719068049,0.,-2.));
#1001=DIRECTION('',(0.,1.,0.));
#1002=VECTOR('',#1001,3.);
#1003=LINE('',#1000,#1002);
#1004=EDGE_CURVE('7:63',#775,#871,#1003,.T.);
#1005=ORIENTED_EDGE('',*,*,#1004,.T.);
#1006=ORIENTED_EDGE('',*,*,#877,.F.);
#1007=ORIENTED_EDGE('',*,*,#987,.F.);
#1008=ORIENTED_EDGE('',*,*,#789,.T.);
#1009=EDGE_LOOP('',(#1005,#1006,#1007,#1008));
#1010=FACE_BOUND('',#1009,.T.);
#1011=ADVANCED_FACE('7:45',(#1010),#999,.T.);
#1012=CARTESIAN_POINT('',(23.72,0.,-2.));
#1013=DIRECTION('',(0.,0.,-1.));
#1014=DIRECTION('',(-1.,0.,0.));
#1015=AXIS2_PLACEMENT_3D('',#1012,#1013,#1014);
#1016=PLANE('',#1015);
#1017=CARTESIAN_POINT('',(13.131099576,0.,-2.));
#1018=DIRECTION('',(0.,1.,0.));
#1019=VECTOR('',#1018,3.);
#1020=LINE('',#1017,#1019);
#1021=EDGE_CURVE('7:57',#766,#880,#1020,.T.);
#1022=ORIENTED_EDGE('',*,*,#1021,.T.);
#1023=ORIENTED_EDGE('',*,*,#885,.F.);
#1024=ORIENTED_EDGE('',*,*,#1004,.F.);
#1025=ORIENTED_EDGE('',*,*,#780,.T.);
#1026=EDGE_LOOP('',(#1022,#1023,#1024,#1025));
#1027=FACE_BOUND('',#1026,.T.);
#1028=ADVANCED_FACE('7:48',(#1027),#1016,.T.);
#1029=CARTESIAN_POINT('',(13.131099576,0.,1.411099576));
#1030=DIRECTION('',(0.,1.,0.));
#1031=DIRECTION('',(0.,-0.,1.));
#1032=AXIS2_PLACEMENT_3D('',#1029,#1030,#1031);
#1033=CYLINDRICAL_SURFACE('',#1032,3.411099576);
#1034=ORIENTED_EDGE('',*,*,#894,.F.);
#1035=ORIENTED_EDGE('',*,*,#1021,.F.);
#1036=ORIENTED_EDGE('',*,*,#772,.T.);
#1037=ORIENTED_EDGE('',*,*,#921,.T.);
#1038=EDGE_LOOP('',(#1034,#1035,#1036,#1037));
#1039=FACE_BOUND('',#1038,.T.);
#1040=ADVANCED_FACE('7:51',(#1039),#1033,.T.);
#1041=CLOSED_SHELL('',(#598,#640,#682,#724,#816,#904,#926,#943,#960,#977,#994,#1011,#1028,#1040));
#1042=MANIFOLD_SOLID_BREP('base',#1041);
#556=STYLED_ITEM('',(#555),#1042);
#16=SHAPE_REPRESENTATION('final design',(#15),#10);
#17=ADVANCED_BREP_SHAPE_REPRESENTATION('final design',(#548,#1042),#10);
#1050=SHAPE_REPRESENTATION_RELATIONSHIP('','',#16,#17);
#1051=APPLICATION_CONTEXT('data for automotive mechanical design processes');
#1052=APPLICATION_PROTOCOL_DEFINITION('international standard','automotive_design',1994,#1051);
#1053=PRODUCT_CONTEXT('',#1051,'mechanical');
#1054=PRODUCT_DEFINITION_CONTEXT('part definition',#1051,'design');
#24=PRODUCT('final design','final design','',(#1053));
#1055=PRODUCT_RELATED_PRODUCT_CATEGORY('part','',(#24));
#1056=PRODUCT_DEFINITION_FORMATION_WITH_SPECIFIED_SOURCE('','',#24,.NOT_KNOWN.);
#25=PRODUCT_DEFINITION('design','',#1056,#1054);
#23=PRODUCT_DEFINITION_SHAPE('','',#25);
#1057=SHAPE_DEFINITION_REPRESENTATION(#23,#16);
#11=DRAUGHTING_MODEL('',(),#10);
#1=MECHANICAL_DESIGN_GEOMETRIC_PRESENTATION_REPRESENTATION('',(#26,#556),#10);
ENDSEC;
END-ISO-10303-21;
